<svg width="203" height="34" viewBox="0 0 203 34" xmlns="http://www.w3.org/2000/svg"><defs><linearGradient x1="14.4%" y1="6.7%" x2="70.7%" y2="53.9%" id="a"><stop stop-color="#EA7037" offset="0%"/><stop stop-color="#E96D38" offset="5.7%"/><stop stop-color="#D64343" offset="100%"/></linearGradient><linearGradient x1="74%" y1="61.5%" x2="-70.9%" y2="3.8%" id="b"><stop stop-color="#FFF" offset="0%"/><stop offset="100%"/></linearGradient><linearGradient x1="24.8%" y1="36.5%" x2="65.8%" y2="76%" id="c"><stop stop-color="#FFF" offset="0%"/><stop offset="100%"/></linearGradient></defs><g fill="none" fill-rule="evenodd"><path d="M86.109 16.8a9.334 9.334 0 0 1 9.6-9.5 9.055 9.055 0 0 1 8.1 4.7l-3.4 2a5.134 5.134 0 0 0-4.8-2.8 5.493 5.493 0 0 0-5.6 5.7 5.493 5.493 0 0 0 5.6 5.7 5.134 5.134 0 0 0 4.8-2.8l3.4 1.9a9.025 9.025 0 0 1-8.2 4.7 9.394 9.394 0 0 1-9.5-9.6z" fill="#FFF"/><path d="M104.109 16.8a9.6 9.6 0 1 1 9.6 9.5 9.455 9.455 0 0 1-9.6-9.5zm15.2 0a5.7 5.7 0 0 0-11.4 0 5.574 5.574 0 0 0 5.7 5.7 5.516 5.516 0 0 0 5.7-5.7z" fill="#FFF" fill-rule="nonzero"/><path d="M141.809 14.7v11.1h-3.9V15.1c0-2.8-1.6-4.2-4.1-4.2-2.6 0-4.6 1.5-4.6 5.2v9.7h-3.9V7.7c3.1 0 3.9.9 3.9 2.3a6.259 6.259 0 0 1 5.6-2.8c4.1.1 7 2.8 7 7.5zm8-3.2v8.7c0 2.3 1.5 2.3 4.5 2.1v3.5c-6 .7-8.4-.9-8.4-5.7v-8.7h-2.9V7.7h2.9v-1c0-2.5.9-3.1 2.8-3.7l1.2-.3v5.1h4.5v3.8h-4.6v-.1z" fill="#FFF"/><path d="M155.609 2.5a2.5 2.5 0 1 1 5 0 2.5 2.5 0 0 1-5 0zm.5 5.2h3.9v18.2h-3.9V7.7zm24 0a3.018 3.018 0 0 0-2.2.7 2.851 2.851 0 0 0-.5 1.9 7.331 7.331 0 0 0-6.3-3.2 9.2 9.2 0 0 0-9.1 9.4 9.2 9.2 0 0 0 9.1 9.4 7.331 7.331 0 0 0 6.3-3.2V25c0 3.2-2 5-5.4 5-3.2 0-4.5-1.2-5.3-2.8l-2.8 2.8c1.7 2.3 4.5 3.5 8.1 3.5 4.8 0 9.3-2.7 9.3-8.6V7.7h-1.2zm-8.4 14.6a5.6 5.6 0 0 1-5.8-5.7 5.8 5.8 0 1 1 11.6 0 5.6 5.6 0 0 1-5.8 5.7zm11.6-5.5a9.6 9.6 0 1 1 9.6 9.5 9.455 9.455 0 0 1-9.6-9.5zm15.3 0a5.7 5.7 0 1 0-11.4 0 5.7 5.7 0 0 0 11.4 0z" fill="#FFF" fill-rule="nonzero"/><path d="M83.509 15.1v11.3h-3.9v-11c0-2.5-1.4-4-3.5-4-2.3 0-4 1.5-4 4.8v10.2h-3.9v-11c0-2.5-1.3-4-3.4-4-2.2 0-4 1.5-4 4.8v10.2h-3.9V8.2c2.7 0 3.9.6 3.9 2.2a5.831 5.831 0 0 1 5.2-2.7 5.767 5.767 0 0 1 5.2 2.9 6.224 6.224 0 0 1 5.6-2.9c3.9 0 6.7 2.9 6.7 7.4z" fill="#FFF"/><path d="M51.5 20.6a3.174 3.174 0 0 1-.7 2.3 2.755 2.755 0 0 1-2 .9h-.1a3.114 3.114 0 0 1-2.1-1.1C43.3 18.6 34.9 10.4 31 6.5l.1-.1c.2-.1.3-.3.5-.4.1-.1.3-.2.4-.3a1.38 1.38 0 0 1 .4-.3c.1-.1.2-.1.2-.2 1.5-1.2 2.8-2.4 3.8-3.1l.3-.3.3-.3c.081-.202.22-.376.4-.5a3.849 3.849 0 0 1 4.5-.3 4.7 4.7 0 0 1 1.1 1c0 .1.1.1.1.2.124.114.225.25.3.4.122.153.223.32.3.5.1.1.1.2.2.2a.1.1 0 0 1 .1.1c.1.1.1.2.2.3.1.1.1.2.2.3l.1.1c.1.1.2.3.3.4a.1.1 0 0 0 .1.1c.3.5.5.9.8 1.4.1.1.1.2.2.4.1.1.1.2.2.3l.3.6a.1.1 0 0 0 .1.1c.1.2.2.3.3.5.3.5.5 1.1.8 1.7.1.3.2.5.3.8.4.8.7 1.7 1.1 2.5.21.415.377.851.5 1.3.118.225.218.46.3.7.195.456.362.924.5 1.4.112.218.18.456.2.7.125.212.194.453.2.7.1.2.1.4.2.6.1.2.1.4.2.6 0 .1.1.3.1.4l.3 1.2v.4z" fill="url(#a)" transform="translate(-.991 3)"/><path d="M49.609 27.7c-.219.34-.489.643-.8.9a5.766 5.766 0 0 1-4.1 1.7 5.368 5.368 0 0 1-3.1-.9c-.5-.3-1.9-1.2-3.9-2.3-1.1-.6-2.4-1.2-3.9-1.9a.1.1 0 0 1-.1-.1 34.3 34.3 0 0 0-4.5-1.6h-.1a20.794 20.794 0 0 0-5.8-1c-7.4 0-20.5 7.5-20.5 7.5-.283.129-.59.197-.9.2a1.869 1.869 0 0 1-1.9-1.5c-.1-.6.6-2.5 2.6-5.8 1-1.7 2.4-3.8 4.2-6.3 2.5-3.4 5.7-7.5 9.7-12.3a3.822 3.822 0 0 1 2.8-1.2c1.02 0 2.01.353 2.8 1 .5.4 2.5 2.3 5.4 5.1 5.3 5.2 13.7 13.4 16.8 17.3a4.269 4.269 0 0 0 3.2 1.7h.3a8.3 8.3 0 0 0 1.8-.5z" fill="#EBEBEB"/><path d="M51.5 20.6a3.174 3.174 0 0 1-.7 2.3 2.755 2.755 0 0 1-2 .9h-.1a3.114 3.114 0 0 1-2.1-1.1C43.3 18.6 34.9 10.4 31 6.5l.1-.1c.2-.1.3-.3.5-.4.1-.1.3-.2.4-.3a1.38 1.38 0 0 1 .4-.3c2.6 1.1 8 3.7 17.4 9.4.195.456.362.924.5 1.4.112.218.18.456.2.7.125.212.194.453.2.7.1.2.1.4.2.6.1.2.1.4.2.6 0 .1.1.3.1.4l.3 1.2v.2z" fill="url(#b)" opacity=".2" transform="translate(-.991 3)"/><path d="M30.2 20.5a20.794 20.794 0 0 0-5.8-1C17 19.5 3.9 27 3.9 27c-.283.129-.59.197-.9.2a1.965 1.965 0 0 1-2-1.5c-.1-.6.6-2.5 2.6-5.8 11.4-4 25.4.3 26.6.6z" fill="url(#c)" opacity=".2" transform="translate(-.991 3)"/></g></svg>